<svg width="14" height="16" viewBox="0 0 14 16" fill="none" xmlns="http://www.w3.org/2000/svg">
<path d="M6.91111 2.44846L3.4501 5.90947C2.76566 6.59398 2.29957 7.46607 2.11076 8.41547C1.92195 9.36486 2.01891 10.3489 2.38936 11.2432C2.75982 12.1375 3.38714 12.9019 4.192 13.4397C4.99686 13.9774 5.94312 14.2645 6.91111 14.2645C7.8791 14.2645 8.82535 13.9774 9.63021 13.4397C10.4351 12.9019 11.0624 12.1375 11.4329 11.2432C11.8033 10.3489 11.9003 9.36486 11.7115 8.41547C11.5226 7.46607 11.0566 6.59398 10.3721 5.90947L6.91111 2.44846ZM6.91111 0.471146L11.3608 4.92081C12.2408 5.80087 12.8401 6.92213 13.0829 8.1428C13.3257 9.36347 13.2011 10.6287 12.7248 11.7786C12.2485 12.9284 11.442 13.9112 10.4072 14.6026C9.37232 15.2941 8.15569 15.6632 6.91111 15.6632C5.66652 15.6632 4.44989 15.2941 3.41506 14.6026C2.38022 13.9112 1.57367 12.9284 1.09738 11.7786C0.621099 10.6287 0.496477 9.36347 0.739278 8.1428C0.982078 6.92213 1.5814 5.80087 2.46144 4.92081L6.91111 0.471146V0.471146Z" fill="white"/>
</svg>
