<svg width="15" height="15" viewBox="0 0 15 15" fill="none" xmlns="http://www.w3.org/2000/svg">
<path d="M2.0715 7.41741C2.0715 6.925 2.13412 6.44796 2.25139 5.99198C2.56588 6.00851 2.87883 5.93776 3.15562 5.78754C3.43242 5.63733 3.66228 5.4135 3.81981 5.1408C3.97734 4.8681 4.0564 4.55715 4.04824 4.24232C4.04008 3.9275 3.94503 3.62106 3.77359 3.35689C4.46179 2.67979 5.31103 2.18905 6.24132 1.93089C6.3842 2.21181 6.60202 2.4477 6.87068 2.61247C7.13934 2.77724 7.44836 2.86445 7.76352 2.86445C8.07868 2.86445 8.38769 2.77724 8.65635 2.61247C8.92501 2.4477 9.14284 2.21181 9.28572 1.93089C10.216 2.18905 11.0652 2.67979 11.7535 3.35689C11.5818 3.62111 11.4866 3.92766 11.4784 4.24263C11.4702 4.5576 11.5493 4.8687 11.7069 5.14152C11.8645 5.41433 12.0945 5.63823 12.3715 5.78842C12.6485 5.93862 12.9616 6.00927 13.2762 5.99255C13.3935 6.44796 13.4561 6.925 13.4561 7.41741C13.4561 7.90981 13.3935 8.38685 13.2762 8.84283C12.9617 8.82619 12.6487 8.89686 12.3718 9.04703C12.0949 9.1972 11.8649 9.42102 11.7073 9.69375C11.5497 9.96647 11.4706 10.2775 11.4788 10.5923C11.4869 10.9072 11.582 11.2137 11.7535 11.4779C11.0652 12.155 10.216 12.6458 9.28572 12.9039C9.14284 12.623 8.92501 12.3871 8.65635 12.2223C8.38769 12.0576 8.07868 11.9704 7.76352 11.9704C7.44836 11.9704 7.13934 12.0576 6.87068 12.2223C6.60202 12.3871 6.3842 12.623 6.24132 12.9039C5.31103 12.6458 4.46179 12.155 3.77359 11.4779C3.94522 11.2137 4.04041 10.9071 4.04863 10.5922C4.05685 10.2772 3.97778 9.96611 3.82016 9.69329C3.66254 9.42048 3.43252 9.19659 3.15555 9.04639C2.87857 8.89619 2.56545 8.82554 2.25082 8.84226C2.13412 8.38742 2.0715 7.91038 2.0715 7.41741ZM4.80622 9.12518C5.16485 9.74624 5.26732 10.4607 5.12728 11.1312C5.35954 11.2963 5.6066 11.4392 5.86561 11.5582C6.38743 11.0907 7.06351 10.8325 7.76409 10.833C8.48135 10.833 9.15194 11.1011 9.66256 11.5582C9.92158 11.4392 10.1686 11.2963 10.4009 11.1312C10.2571 10.4458 10.3714 9.73148 10.722 9.12518C11.0718 8.51856 11.6333 8.06246 12.2988 7.84435C12.3251 7.56033 12.3251 7.27448 12.2988 6.99046C11.6331 6.77247 11.0714 6.31636 10.7214 5.70963C10.3709 5.10333 10.2565 4.38897 10.4003 3.70356C10.1681 3.53843 9.92093 3.39549 9.66199 3.27662C9.14032 3.74394 8.46447 4.0022 7.76409 4.00186C7.06351 4.00234 6.38743 3.74407 5.86561 3.27662C5.60667 3.39549 5.35948 3.53844 5.12728 3.70356C5.27106 4.38897 5.15673 5.10333 4.80622 5.70963C4.45634 6.31625 3.89483 6.77235 3.22937 6.99046C3.20305 7.27448 3.20305 7.56033 3.22937 7.84435C3.89504 8.06234 4.45677 8.51846 4.80679 9.12518H4.80622ZM7.76409 9.12518C7.31116 9.12518 6.87678 8.94526 6.55651 8.62499C6.23624 8.30472 6.05631 7.87034 6.05631 7.41741C6.05631 6.96448 6.23624 6.5301 6.55651 6.20983C6.87678 5.88956 7.31116 5.70963 7.76409 5.70963C8.21702 5.70963 8.6514 5.88956 8.97167 6.20983C9.29194 6.5301 9.47186 6.96448 9.47186 7.41741C9.47186 7.87034 9.29194 8.30472 8.97167 8.62499C8.6514 8.94526 8.21702 9.12518 7.76409 9.12518ZM7.76409 7.98666C7.91506 7.98666 8.05986 7.92669 8.16661 7.81993C8.27337 7.71318 8.33335 7.56838 8.33335 7.41741C8.33335 7.26643 8.27337 7.12164 8.16661 7.01488C8.05986 6.90812 7.91506 6.84815 7.76409 6.84815C7.61311 6.84815 7.46832 6.90812 7.36156 7.01488C7.2548 7.12164 7.19483 7.26643 7.19483 7.41741C7.19483 7.56838 7.2548 7.71318 7.36156 7.81993C7.46832 7.92669 7.61311 7.98666 7.76409 7.98666Z" fill="white"/>
</svg>
