<svg width="15" height="15" viewBox="0 0 15 15" fill="none" xmlns="http://www.w3.org/2000/svg">
<path d="M6.86232 11.4021H2.31756V10.0037H6.86232C7.30893 10.0039 7.74697 10.1262 8.129 10.3576C8.51103 10.5889 8.82247 10.9204 9.02958 11.316C9.23669 11.7117 9.33156 12.1565 9.30393 12.6023C9.2763 13.048 9.12721 13.4777 8.87282 13.8448C8.61843 14.2119 8.26844 14.5023 7.86076 14.6847C7.45309 14.8671 7.00328 14.9344 6.56007 14.8794C6.11686 14.8244 5.69715 14.6492 5.34642 14.3727C4.99569 14.0962 4.72731 13.729 4.57036 13.3109L5.87995 12.8194C5.9472 12.9986 6.0622 13.1559 6.21251 13.2745C6.36281 13.393 6.54268 13.4681 6.73263 13.4917C6.92257 13.5153 7.11535 13.4864 7.29008 13.4083C7.4648 13.3301 7.61481 13.2057 7.72385 13.0483C7.83289 12.891 7.8968 12.7069 7.90866 12.5158C7.92051 12.3248 7.87987 12.1342 7.79112 11.9646C7.70237 11.795 7.5689 11.6529 7.40518 11.5538C7.24146 11.4546 7.05372 11.4022 6.86232 11.4021ZM3.01676 7.20693H12.4559C12.9025 7.20709 13.3405 7.32946 13.7225 7.56079C14.1046 7.79212 14.416 8.12358 14.6231 8.51927C14.8302 8.91495 14.9251 9.35976 14.8975 9.80552C14.8698 10.2513 14.7208 10.681 14.4664 11.048C14.212 11.4151 13.862 11.7056 13.4543 11.8879C13.0466 12.0703 12.5968 12.1377 12.1536 12.0827C11.7104 12.0277 11.2907 11.8524 10.94 11.5759C10.5892 11.2994 10.3209 10.9322 10.1639 10.5141L11.4735 10.0226C11.5407 10.2018 11.6557 10.3592 11.8061 10.4777C11.9564 10.5962 12.1362 10.6713 12.3262 10.6949C12.5161 10.7185 12.7089 10.6896 12.8836 10.6115C13.0583 10.5334 13.2084 10.4089 13.3174 10.2516C13.4264 10.0943 13.4903 9.91011 13.5022 9.71907C13.5141 9.52804 13.4734 9.3374 13.3847 9.16781C13.2959 8.99822 13.1624 8.85616 12.9987 8.75701C12.835 8.65785 12.6473 8.6054 12.4559 8.60532H3.01676C2.46044 8.60532 1.92692 8.38432 1.53354 7.99095C1.14017 7.59758 0.919177 7.06405 0.919177 6.50774C0.919177 5.95142 1.14017 5.4179 1.53354 5.02452C1.92692 4.63115 2.46044 4.41016 3.01676 4.41016H8.9599C9.1513 4.41008 9.33904 4.35762 9.50276 4.25847C9.66648 4.15931 9.79995 4.01725 9.8887 3.84766C9.97744 3.67808 10.0181 3.48744 10.0062 3.2964C9.99438 3.10536 9.93047 2.92121 9.82143 2.7639C9.71239 2.60659 9.56238 2.48212 9.38766 2.40397C9.21293 2.32583 9.02015 2.29698 8.8302 2.32057C8.64026 2.34416 8.46039 2.41928 8.31009 2.53779C8.15978 2.65631 8.04478 2.81369 7.97753 2.99289L6.66794 2.50206C6.86964 1.96564 7.25315 1.51699 7.75165 1.23429C8.25015 0.951585 8.83204 0.852744 9.39593 0.954989C9.95982 1.05723 10.47 1.35409 10.8375 1.79382C11.205 2.23355 11.4066 2.78828 11.4071 3.36137C11.4071 4.0104 11.1492 4.63285 10.6903 5.09178C10.2314 5.55072 9.60893 5.80854 8.9599 5.80854H3.01676C2.83132 5.80854 2.65348 5.88221 2.52235 6.01333C2.39123 6.14446 2.31756 6.3223 2.31756 6.50774C2.31756 6.69317 2.39123 6.87102 2.52235 7.00214C2.65348 7.13326 2.83132 7.20693 3.01676 7.20693Z" fill="white"/>
</svg>
